<mxfile host="app.diagrams.net" modified="2024-03-09T16:16:12.124Z" agent="Mozilla/5.0 (Macintosh; Intel Mac OS X 10_15_7) AppleWebKit/537.36 (KHTML, like Gecko) Chrome/122.0.0.0 Safari/537.36" etag="D17Co7XvAcqJFDExHKtp" version="24.0.4" type="github">
  <diagram name="第 1 页" id="GcDCPGvoP4L_9R7vlP1d">
    <mxGraphModel dx="724" dy="428" grid="1" gridSize="10" guides="1" tooltips="1" connect="1" arrows="1" fold="1" page="1" pageScale="1" pageWidth="827" pageHeight="1169" math="0" shadow="0">
      <root>
        <mxCell id="0" />
        <mxCell id="1" parent="0" />
        <mxCell id="blYR4sCcMmHHItJsjOj6-1" value="" style="rounded=0;whiteSpace=wrap;html=1;dashed=1;opacity=30;" vertex="1" parent="1">
          <mxGeometry x="30" y="50" width="1180" height="1160" as="geometry" />
        </mxCell>
        <mxCell id="blYR4sCcMmHHItJsjOj6-4" value="截图服务" style="shape=umlLifeline;perimeter=lifelinePerimeter;whiteSpace=wrap;html=1;container=1;collapsible=0;recursiveResize=0;outlineConnect=0;rounded=1;shadow=0;comic=0;labelBackgroundColor=none;strokeWidth=1;fontFamily=Verdana;fontSize=12;align=center;" vertex="1" parent="1">
          <mxGeometry x="880" y="80" width="100" height="980" as="geometry" />
        </mxCell>
        <mxCell id="blYR4sCcMmHHItJsjOj6-44" value="返回" style="html=1;verticalAlign=bottom;endArrow=open;dashed=1;endSize=8;labelBackgroundColor=none;fontFamily=Verdana;fontSize=12;edgeStyle=elbowEdgeStyle;elbow=vertical;" edge="1" parent="blYR4sCcMmHHItJsjOj6-4">
          <mxGeometry x="0.0031" relative="1" as="geometry">
            <mxPoint x="-585" y="180" as="targetPoint" />
            <Array as="points" />
            <mxPoint x="-435" y="180" as="sourcePoint" />
            <mxPoint as="offset" />
          </mxGeometry>
        </mxCell>
        <mxCell id="blYR4sCcMmHHItJsjOj6-45" value="返回" style="html=1;verticalAlign=bottom;endArrow=open;dashed=1;endSize=8;labelBackgroundColor=none;fontFamily=Verdana;fontSize=12;edgeStyle=elbowEdgeStyle;elbow=vertical;" edge="1" parent="blYR4sCcMmHHItJsjOj6-4">
          <mxGeometry x="0.0031" relative="1" as="geometry">
            <mxPoint x="-744" y="220.07" as="targetPoint" />
            <Array as="points" />
            <mxPoint x="-594" y="220.07" as="sourcePoint" />
            <mxPoint as="offset" />
          </mxGeometry>
        </mxCell>
        <mxCell id="blYR4sCcMmHHItJsjOj6-51" value="生成中" style="html=1;verticalAlign=bottom;endArrow=open;dashed=1;endSize=8;labelBackgroundColor=none;fontFamily=Verdana;fontSize=12;edgeStyle=elbowEdgeStyle;elbow=vertical;" edge="1" parent="blYR4sCcMmHHItJsjOj6-4">
          <mxGeometry x="0.0031" relative="1" as="geometry">
            <mxPoint x="-746" y="580.14" as="targetPoint" />
            <Array as="points" />
            <mxPoint x="-596" y="580.14" as="sourcePoint" />
            <mxPoint as="offset" />
          </mxGeometry>
        </mxCell>
        <mxCell id="blYR4sCcMmHHItJsjOj6-26" value="" style="html=1;points=[];perimeter=orthogonalPerimeter;rounded=0;shadow=0;comic=0;labelBackgroundColor=none;strokeWidth=1;fontFamily=Verdana;fontSize=12;align=center;" vertex="1" parent="blYR4sCcMmHHItJsjOj6-4">
          <mxGeometry x="45" y="540" width="10" height="240" as="geometry" />
        </mxCell>
        <mxCell id="blYR4sCcMmHHItJsjOj6-52" value="" style="html=1;points=[];perimeter=orthogonalPerimeter;rounded=0;shadow=0;comic=0;labelBackgroundColor=none;strokeWidth=1;fontFamily=Verdana;fontSize=12;align=center;" vertex="1" parent="blYR4sCcMmHHItJsjOj6-4">
          <mxGeometry x="-115" y="540" width="10" height="40" as="geometry" />
        </mxCell>
        <mxCell id="blYR4sCcMmHHItJsjOj6-35" value="获取截图任务" style="html=1;verticalAlign=bottom;endArrow=none;labelBackgroundColor=none;fontFamily=Verdana;fontSize=12;edgeStyle=elbowEdgeStyle;elbow=vertical;entryX=-0.209;entryY=0;entryDx=0;entryDy=0;entryPerimeter=0;startArrow=block;startFill=1;endFill=0;" edge="1" parent="blYR4sCcMmHHItJsjOj6-4">
          <mxGeometry x="-0.0016" relative="1" as="geometry">
            <mxPoint x="-105" y="540" as="sourcePoint" />
            <Array as="points">
              <mxPoint x="-48.40999999999997" y="540" />
              <mxPoint x="-38.40999999999997" y="600" />
              <mxPoint x="1.5900000000000318" y="610" />
              <mxPoint x="-18.409999999999968" y="570" />
              <mxPoint x="-98.40999999999997" y="460" />
            </Array>
            <mxPoint x="45" y="540" as="targetPoint" />
            <mxPoint as="offset" />
          </mxGeometry>
        </mxCell>
        <mxCell id="blYR4sCcMmHHItJsjOj6-53" value="返回" style="html=1;verticalAlign=bottom;endArrow=none;dashed=1;endSize=8;labelBackgroundColor=none;fontFamily=Verdana;fontSize=12;edgeStyle=elbowEdgeStyle;elbow=vertical;entryX=1.146;entryY=0.797;entryDx=0;entryDy=0;entryPerimeter=0;startArrow=open;startFill=0;endFill=0;" edge="1" parent="blYR4sCcMmHHItJsjOj6-4">
          <mxGeometry x="0.0031" relative="1" as="geometry">
            <mxPoint x="-104" y="580.0699999999999" as="targetPoint" />
            <Array as="points" />
            <mxPoint x="45" y="580.0699999999999" as="sourcePoint" />
            <mxPoint as="offset" />
          </mxGeometry>
        </mxCell>
        <mxCell id="blYR4sCcMmHHItJsjOj6-34" value="截图" style="html=1;verticalAlign=bottom;endArrow=block;labelBackgroundColor=none;fontFamily=Verdana;fontSize=12;elbow=vertical;edgeStyle=orthogonalEdgeStyle;curved=1;exitX=1.038;exitY=0.345;exitPerimeter=0;entryX=1.027;entryY=0.831;entryDx=0;entryDy=0;entryPerimeter=0;" edge="1" parent="blYR4sCcMmHHItJsjOj6-4">
          <mxGeometry x="0.0067" y="20" relative="1" as="geometry">
            <mxPoint x="55" y="620" as="sourcePoint" />
            <mxPoint x="55" y="659" as="targetPoint" />
            <Array as="points">
              <mxPoint x="110" y="620" />
              <mxPoint x="110" y="659" />
            </Array>
            <mxPoint as="offset" />
          </mxGeometry>
        </mxCell>
        <mxCell id="blYR4sCcMmHHItJsjOj6-3" value="" style="html=1;points=[];perimeter=orthogonalPerimeter;rounded=0;shadow=0;comic=0;labelBackgroundColor=none;strokeWidth=1;fontFamily=Verdana;fontSize=12;align=center;" vertex="1" parent="blYR4sCcMmHHItJsjOj6-4">
          <mxGeometry x="205" y="700" width="10" height="40" as="geometry" />
        </mxCell>
        <mxCell id="blYR4sCcMmHHItJsjOj6-55" value="返回" style="html=1;verticalAlign=bottom;endArrow=open;dashed=1;endSize=8;labelBackgroundColor=none;fontFamily=Verdana;fontSize=12;edgeStyle=elbowEdgeStyle;elbow=vertical;entryX=1.146;entryY=0.797;entryDx=0;entryDy=0;entryPerimeter=0;" edge="1" parent="blYR4sCcMmHHItJsjOj6-4">
          <mxGeometry x="0.0031" relative="1" as="geometry">
            <mxPoint x="55" y="740.0699999999999" as="targetPoint" />
            <Array as="points" />
            <mxPoint x="204" y="740.0699999999999" as="sourcePoint" />
            <mxPoint as="offset" />
          </mxGeometry>
        </mxCell>
        <mxCell id="blYR4sCcMmHHItJsjOj6-2" value="阿里OSS" style="shape=umlLifeline;perimeter=lifelinePerimeter;whiteSpace=wrap;html=1;container=1;collapsible=0;recursiveResize=0;outlineConnect=0;rounded=1;shadow=0;comic=0;labelBackgroundColor=none;strokeWidth=1;fontFamily=Verdana;fontSize=12;align=center;" vertex="1" parent="1">
          <mxGeometry x="1040" y="80" width="100" height="980" as="geometry" />
        </mxCell>
        <mxCell id="blYR4sCcMmHHItJsjOj6-54" value="保存截图" style="html=1;verticalAlign=bottom;endArrow=block;labelBackgroundColor=none;fontFamily=Verdana;fontSize=12;edgeStyle=elbowEdgeStyle;elbow=vertical;" edge="1" parent="blYR4sCcMmHHItJsjOj6-2">
          <mxGeometry x="-0.0016" relative="1" as="geometry">
            <mxPoint x="-105" y="700" as="sourcePoint" />
            <Array as="points">
              <mxPoint x="-50" y="700" />
              <mxPoint x="-40" y="760" />
              <mxPoint y="770" />
              <mxPoint x="-20" y="730" />
              <mxPoint x="-100" y="620" />
            </Array>
            <mxPoint x="43.84999999999991" y="700.54" as="targetPoint" />
            <mxPoint as="offset" />
          </mxGeometry>
        </mxCell>
        <mxCell id="blYR4sCcMmHHItJsjOj6-7" value="saas工作台" style="shape=umlLifeline;perimeter=lifelinePerimeter;whiteSpace=wrap;html=1;container=1;collapsible=0;recursiveResize=0;outlineConnect=0;rounded=1;shadow=0;comic=0;labelBackgroundColor=none;strokeWidth=1;fontFamily=Verdana;fontSize=12;align=center;" vertex="1" parent="1">
          <mxGeometry x="240" y="80" width="100" height="950" as="geometry" />
        </mxCell>
        <mxCell id="blYR4sCcMmHHItJsjOj6-8" value="" style="html=1;points=[];perimeter=orthogonalPerimeter;rounded=0;shadow=0;comic=0;labelBackgroundColor=none;strokeWidth=1;fontFamily=Verdana;fontSize=12;align=center;" vertex="1" parent="blYR4sCcMmHHItJsjOj6-7">
          <mxGeometry x="45" y="100" width="10" height="120" as="geometry" />
        </mxCell>
        <mxCell id="blYR4sCcMmHHItJsjOj6-46" value="" style="html=1;points=[];perimeter=orthogonalPerimeter;rounded=0;shadow=0;comic=0;labelBackgroundColor=none;strokeWidth=1;fontFamily=Verdana;fontSize=12;align=center;" vertex="1" parent="blYR4sCcMmHHItJsjOj6-7">
          <mxGeometry x="45" y="260" width="10" height="320" as="geometry" />
        </mxCell>
        <mxCell id="blYR4sCcMmHHItJsjOj6-63" value="" style="html=1;points=[];perimeter=orthogonalPerimeter;rounded=0;shadow=0;comic=0;labelBackgroundColor=none;strokeWidth=1;fontFamily=Verdana;fontSize=12;align=center;" vertex="1" parent="blYR4sCcMmHHItJsjOj6-7">
          <mxGeometry x="45" y="620" width="10" height="320" as="geometry" />
        </mxCell>
        <mxCell id="blYR4sCcMmHHItJsjOj6-10" value="课件API服务" style="shape=umlLifeline;perimeter=lifelinePerimeter;whiteSpace=wrap;html=1;container=1;collapsible=0;recursiveResize=0;outlineConnect=0;rounded=1;shadow=0;comic=0;labelBackgroundColor=none;strokeWidth=1;fontFamily=Verdana;fontSize=12;align=center;" vertex="1" parent="1">
          <mxGeometry x="400" y="80" width="100" height="950" as="geometry" />
        </mxCell>
        <mxCell id="blYR4sCcMmHHItJsjOj6-11" value="" style="html=1;points=[];perimeter=orthogonalPerimeter;rounded=0;shadow=0;comic=0;labelBackgroundColor=none;strokeWidth=1;fontFamily=Verdana;fontSize=12;align=center;" vertex="1" parent="blYR4sCcMmHHItJsjOj6-10">
          <mxGeometry x="45.89" y="140" width="10" height="40" as="geometry" />
        </mxCell>
        <mxCell id="blYR4sCcMmHHItJsjOj6-12" value="" style="html=1;points=[];perimeter=orthogonalPerimeter;rounded=0;shadow=0;comic=0;labelBackgroundColor=none;strokeWidth=1;fontFamily=Verdana;fontSize=12;align=center;" vertex="1" parent="blYR4sCcMmHHItJsjOj6-10">
          <mxGeometry x="45.889999999999986" y="880" width="10" height="40" as="geometry" />
        </mxCell>
        <mxCell id="blYR4sCcMmHHItJsjOj6-40" value="已生成PPT" style="html=1;verticalAlign=bottom;endArrow=block;entryX=0;entryY=0;labelBackgroundColor=none;fontFamily=Verdana;fontSize=12;edgeStyle=elbowEdgeStyle;elbow=vertical;" edge="1" parent="blYR4sCcMmHHItJsjOj6-10">
          <mxGeometry relative="1" as="geometry">
            <mxPoint x="-104" y="140" as="sourcePoint" />
            <mxPoint x="46" y="140" as="targetPoint" />
          </mxGeometry>
        </mxCell>
        <mxCell id="blYR4sCcMmHHItJsjOj6-47" value="未生成PPT" style="html=1;verticalAlign=bottom;endArrow=block;entryX=0;entryY=0;labelBackgroundColor=none;fontFamily=Verdana;fontSize=12;edgeStyle=elbowEdgeStyle;elbow=vertical;" edge="1" parent="blYR4sCcMmHHItJsjOj6-10">
          <mxGeometry relative="1" as="geometry">
            <mxPoint x="-104.11000000000001" y="260.07" as="sourcePoint" />
            <mxPoint x="45.889999999999986" y="260.07" as="targetPoint" />
          </mxGeometry>
        </mxCell>
        <mxCell id="blYR4sCcMmHHItJsjOj6-48" value="" style="html=1;points=[];perimeter=orthogonalPerimeter;rounded=0;shadow=0;comic=0;labelBackgroundColor=none;strokeWidth=1;fontFamily=Verdana;fontSize=12;align=center;" vertex="1" parent="blYR4sCcMmHHItJsjOj6-10">
          <mxGeometry x="45" y="260" width="10" height="40" as="geometry" />
        </mxCell>
        <mxCell id="blYR4sCcMmHHItJsjOj6-13" value="任务调度服务" style="shape=umlLifeline;perimeter=lifelinePerimeter;whiteSpace=wrap;html=1;container=1;collapsible=0;recursiveResize=0;outlineConnect=0;rounded=1;shadow=0;comic=0;labelBackgroundColor=none;strokeWidth=1;fontFamily=Verdana;fontSize=12;align=center;" vertex="1" parent="1">
          <mxGeometry x="560" y="80" width="100" height="970" as="geometry" />
        </mxCell>
        <mxCell id="blYR4sCcMmHHItJsjOj6-15" value="任务拆分" style="html=1;verticalAlign=bottom;endArrow=block;labelBackgroundColor=none;fontFamily=Verdana;fontSize=12;elbow=vertical;edgeStyle=orthogonalEdgeStyle;curved=1;exitX=1.038;exitY=0.345;exitPerimeter=0;entryX=1.027;entryY=0.831;entryDx=0;entryDy=0;entryPerimeter=0;" edge="1" parent="blYR4sCcMmHHItJsjOj6-13">
          <mxGeometry x="0.0067" y="20" relative="1" as="geometry">
            <mxPoint x="56.15" y="379.5" as="sourcePoint" />
            <mxPoint x="56.15" y="418.49999999999994" as="targetPoint" />
            <Array as="points">
              <mxPoint x="111.15" y="379.5" />
              <mxPoint x="111.15" y="418.49999999999994" />
            </Array>
            <mxPoint as="offset" />
          </mxGeometry>
        </mxCell>
        <mxCell id="blYR4sCcMmHHItJsjOj6-16" value="" style="html=1;points=[];perimeter=orthogonalPerimeter;rounded=0;shadow=0;comic=0;labelBackgroundColor=none;strokeWidth=1;fontFamily=Verdana;fontSize=12;align=center;" vertex="1" parent="blYR4sCcMmHHItJsjOj6-13">
          <mxGeometry x="46.15" y="340" width="10" height="200" as="geometry" />
        </mxCell>
        <mxCell id="blYR4sCcMmHHItJsjOj6-17" value="课件PPT生成任务" style="html=1;verticalAlign=bottom;endArrow=block;labelBackgroundColor=none;fontFamily=Verdana;fontSize=12;edgeStyle=elbowEdgeStyle;elbow=vertical;" edge="1" parent="blYR4sCcMmHHItJsjOj6-13" target="blYR4sCcMmHHItJsjOj6-16">
          <mxGeometry x="-0.0016" relative="1" as="geometry">
            <mxPoint x="-265" y="340" as="sourcePoint" />
            <Array as="points">
              <mxPoint x="-47.85000000000002" y="340" />
              <mxPoint x="-37.85000000000002" y="400" />
              <mxPoint x="2.1499999999999773" y="410" />
              <mxPoint x="-17.850000000000023" y="370" />
              <mxPoint x="-97.85000000000002" y="260" />
            </Array>
            <mxPoint as="offset" />
            <mxPoint x="47.15000000000009" y="340" as="targetPoint" />
          </mxGeometry>
        </mxCell>
        <mxCell id="blYR4sCcMmHHItJsjOj6-18" value="单页截图任务" style="html=1;verticalAlign=bottom;endArrow=block;labelBackgroundColor=none;fontFamily=Verdana;fontSize=12;edgeStyle=elbowEdgeStyle;elbow=vertical;" edge="1" parent="blYR4sCcMmHHItJsjOj6-13">
          <mxGeometry x="-0.0016" relative="1" as="geometry">
            <mxPoint x="56.14999999999999" y="459.46" as="sourcePoint" />
            <Array as="points">
              <mxPoint x="111.14999999999998" y="459.46" />
              <mxPoint x="121.14999999999998" y="519.46" />
              <mxPoint x="161.14999999999998" y="529.46" />
              <mxPoint x="141.14999999999998" y="489.46" />
              <mxPoint x="61.14999999999999" y="379.46" />
            </Array>
            <mxPoint x="205" y="460" as="targetPoint" />
            <mxPoint as="offset" />
          </mxGeometry>
        </mxCell>
        <mxCell id="blYR4sCcMmHHItJsjOj6-20" value="返回" style="html=1;verticalAlign=bottom;endArrow=open;dashed=1;endSize=8;labelBackgroundColor=none;fontFamily=Verdana;fontSize=12;edgeStyle=elbowEdgeStyle;elbow=vertical;entryX=1.146;entryY=0.797;entryDx=0;entryDy=0;entryPerimeter=0;" edge="1" parent="blYR4sCcMmHHItJsjOj6-13">
          <mxGeometry x="0.0031" relative="1" as="geometry">
            <mxPoint x="55" y="500" as="targetPoint" />
            <Array as="points" />
            <mxPoint x="204" y="500" as="sourcePoint" />
            <mxPoint as="offset" />
          </mxGeometry>
        </mxCell>
        <mxCell id="blYR4sCcMmHHItJsjOj6-23" value="用户" style="shape=umlLifeline;perimeter=lifelinePerimeter;whiteSpace=wrap;html=1;container=1;collapsible=0;recursiveResize=0;outlineConnect=0;rounded=1;shadow=0;comic=0;labelBackgroundColor=none;strokeWidth=1;fontFamily=Verdana;fontSize=12;align=center;" vertex="1" parent="1">
          <mxGeometry x="80" y="80" width="100" height="950" as="geometry" />
        </mxCell>
        <mxCell id="blYR4sCcMmHHItJsjOj6-24" value="" style="html=1;points=[];perimeter=orthogonalPerimeter;rounded=0;shadow=0;comic=0;labelBackgroundColor=none;strokeWidth=1;fontFamily=Verdana;fontSize=12;align=center;" vertex="1" parent="blYR4sCcMmHHItJsjOj6-23">
          <mxGeometry x="45" y="100" width="10" height="820" as="geometry" />
        </mxCell>
        <mxCell id="blYR4sCcMmHHItJsjOj6-25" value="消息队列" style="shape=umlLifeline;perimeter=lifelinePerimeter;whiteSpace=wrap;html=1;container=1;collapsible=0;recursiveResize=0;outlineConnect=0;rounded=1;shadow=0;comic=0;labelBackgroundColor=none;strokeWidth=1;fontFamily=Verdana;fontSize=12;align=center;" vertex="1" parent="1">
          <mxGeometry x="720" y="80" width="100" height="980" as="geometry" />
        </mxCell>
        <mxCell id="blYR4sCcMmHHItJsjOj6-19" value="" style="html=1;points=[];perimeter=orthogonalPerimeter;rounded=0;shadow=0;comic=0;labelBackgroundColor=none;strokeWidth=1;fontFamily=Verdana;fontSize=12;align=center;" vertex="1" parent="blYR4sCcMmHHItJsjOj6-25">
          <mxGeometry x="45" y="460" width="10" height="40" as="geometry" />
        </mxCell>
        <mxCell id="blYR4sCcMmHHItJsjOj6-60" value="保存PPT" style="html=1;verticalAlign=bottom;endArrow=block;labelBackgroundColor=none;fontFamily=Verdana;fontSize=12;edgeStyle=elbowEdgeStyle;elbow=vertical;" edge="1" parent="blYR4sCcMmHHItJsjOj6-25">
          <mxGeometry x="-0.0016" relative="1" as="geometry">
            <mxPoint x="-102" y="900" as="sourcePoint" />
            <Array as="points">
              <mxPoint x="-48.85000000000002" y="899.66" />
              <mxPoint x="-38.85000000000002" y="959.6600000000001" />
              <mxPoint x="1.1499999999999773" y="969.6600000000001" />
              <mxPoint x="-18.850000000000023" y="929.66" />
              <mxPoint x="-98.85000000000002" y="819.66" />
            </Array>
            <mxPoint x="365" y="900" as="targetPoint" />
            <mxPoint as="offset" />
          </mxGeometry>
        </mxCell>
        <mxCell id="blYR4sCcMmHHItJsjOj6-27" value="课件下载PPT" style="html=1;verticalAlign=bottom;endArrow=block;entryX=0;entryY=0;labelBackgroundColor=none;fontFamily=Verdana;fontSize=12;edgeStyle=elbowEdgeStyle;elbow=vertical;" edge="1" parent="1" source="blYR4sCcMmHHItJsjOj6-24" target="blYR4sCcMmHHItJsjOj6-8">
          <mxGeometry relative="1" as="geometry">
            <mxPoint x="220" y="190" as="sourcePoint" />
          </mxGeometry>
        </mxCell>
        <mxCell id="blYR4sCcMmHHItJsjOj6-38" value="截图结果返回" style="html=1;verticalAlign=bottom;endArrow=open;dashed=1;endSize=8;labelBackgroundColor=none;fontFamily=Verdana;fontSize=12;edgeStyle=elbowEdgeStyle;elbow=vertical;entryX=0.974;entryY=0.851;entryDx=0;entryDy=0;entryPerimeter=0;" edge="1" parent="1">
          <mxGeometry x="-0.0012" relative="1" as="geometry">
            <mxPoint x="134.42" y="980" as="targetPoint" />
            <Array as="points" />
            <mxPoint x="445.57" y="980.52" as="sourcePoint" />
            <mxPoint as="offset" />
          </mxGeometry>
        </mxCell>
        <mxCell id="blYR4sCcMmHHItJsjOj6-42" value="返回" style="html=1;verticalAlign=bottom;endArrow=open;dashed=1;endSize=8;labelBackgroundColor=none;fontFamily=Verdana;fontSize=12;edgeStyle=elbowEdgeStyle;elbow=vertical;" edge="1" parent="1">
          <mxGeometry x="0.0031" relative="1" as="geometry">
            <mxPoint x="295" y="380.08" as="targetPoint" />
            <Array as="points" />
            <mxPoint x="445" y="380.08" as="sourcePoint" />
            <mxPoint as="offset" />
          </mxGeometry>
        </mxCell>
        <mxCell id="blYR4sCcMmHHItJsjOj6-49" value="返回" style="html=1;verticalAlign=bottom;endArrow=open;dashed=1;endSize=8;labelBackgroundColor=none;fontFamily=Verdana;fontSize=12;edgeStyle=elbowEdgeStyle;elbow=vertical;" edge="1" parent="1">
          <mxGeometry x="0.0031" relative="1" as="geometry">
            <mxPoint x="295" y="620" as="targetPoint" />
            <Array as="points" />
            <mxPoint x="605" y="620" as="sourcePoint" />
            <mxPoint as="offset" />
          </mxGeometry>
        </mxCell>
        <mxCell id="blYR4sCcMmHHItJsjOj6-56" value="返回" style="html=1;verticalAlign=bottom;endArrow=open;dashed=1;endSize=8;labelBackgroundColor=none;fontFamily=Verdana;fontSize=12;edgeStyle=elbowEdgeStyle;elbow=vertical;entryX=1.146;entryY=0.797;entryDx=0;entryDy=0;entryPerimeter=0;" edge="1" parent="1">
          <mxGeometry x="0.0031" relative="1" as="geometry">
            <mxPoint x="615" y="860" as="targetPoint" />
            <Array as="points" />
            <mxPoint x="924" y="860.14" as="sourcePoint" />
            <mxPoint as="offset" />
          </mxGeometry>
        </mxCell>
        <mxCell id="blYR4sCcMmHHItJsjOj6-57" value="任务合并" style="html=1;verticalAlign=bottom;endArrow=block;labelBackgroundColor=none;fontFamily=Verdana;fontSize=12;elbow=vertical;edgeStyle=orthogonalEdgeStyle;curved=1;exitX=1.038;exitY=0.345;exitPerimeter=0;entryX=1.027;entryY=0.831;entryDx=0;entryDy=0;entryPerimeter=0;" edge="1" parent="1">
          <mxGeometry x="0.0067" y="20" relative="1" as="geometry">
            <mxPoint x="615" y="700" as="sourcePoint" />
            <mxPoint x="615" y="739" as="targetPoint" />
            <Array as="points">
              <mxPoint x="670" y="700" />
              <mxPoint x="670" y="739" />
            </Array>
            <mxPoint as="offset" />
          </mxGeometry>
        </mxCell>
        <mxCell id="blYR4sCcMmHHItJsjOj6-58" value="超时检查" style="html=1;verticalAlign=bottom;endArrow=block;labelBackgroundColor=none;fontFamily=Verdana;fontSize=12;elbow=vertical;edgeStyle=orthogonalEdgeStyle;curved=1;exitX=1.038;exitY=0.345;exitPerimeter=0;entryX=1.027;entryY=0.831;entryDx=0;entryDy=0;entryPerimeter=0;" edge="1" parent="1">
          <mxGeometry x="0.0067" y="20" relative="1" as="geometry">
            <mxPoint x="616" y="779" as="sourcePoint" />
            <mxPoint x="616" y="818" as="targetPoint" />
            <Array as="points">
              <mxPoint x="671" y="779" />
              <mxPoint x="671" y="818" />
            </Array>
            <mxPoint as="offset" />
          </mxGeometry>
        </mxCell>
        <mxCell id="blYR4sCcMmHHItJsjOj6-59" value="生成PPT文件" style="html=1;verticalAlign=bottom;endArrow=block;labelBackgroundColor=none;fontFamily=Verdana;fontSize=12;elbow=vertical;edgeStyle=orthogonalEdgeStyle;curved=1;exitX=1.038;exitY=0.345;exitPerimeter=0;entryX=1.027;entryY=0.831;entryDx=0;entryDy=0;entryPerimeter=0;" edge="1" parent="1">
          <mxGeometry x="0.0067" y="20" relative="1" as="geometry">
            <mxPoint x="617" y="900" as="sourcePoint" />
            <mxPoint x="617" y="939" as="targetPoint" />
            <Array as="points">
              <mxPoint x="672" y="900" />
              <mxPoint x="672" y="939" />
            </Array>
            <mxPoint as="offset" />
          </mxGeometry>
        </mxCell>
        <mxCell id="blYR4sCcMmHHItJsjOj6-61" value="" style="html=1;points=[];perimeter=orthogonalPerimeter;rounded=0;shadow=0;comic=0;labelBackgroundColor=none;strokeWidth=1;fontFamily=Verdana;fontSize=12;align=center;" vertex="1" parent="1">
          <mxGeometry x="1085" y="980" width="10" height="40" as="geometry" />
        </mxCell>
        <mxCell id="blYR4sCcMmHHItJsjOj6-62" value="返回" style="html=1;verticalAlign=bottom;endArrow=open;dashed=1;endSize=8;labelBackgroundColor=none;fontFamily=Verdana;fontSize=12;edgeStyle=elbowEdgeStyle;elbow=vertical;entryX=1.146;entryY=0.797;entryDx=0;entryDy=0;entryPerimeter=0;" edge="1" parent="1">
          <mxGeometry x="0.0031" relative="1" as="geometry">
            <mxPoint x="615" y="1020" as="targetPoint" />
            <Array as="points" />
            <mxPoint x="1085" y="1020" as="sourcePoint" />
            <mxPoint as="offset" />
          </mxGeometry>
        </mxCell>
        <mxCell id="blYR4sCcMmHHItJsjOj6-41" value="生成进度检查" style="html=1;verticalAlign=bottom;endArrow=block;labelBackgroundColor=none;fontFamily=Verdana;fontSize=12;elbow=vertical;edgeStyle=orthogonalEdgeStyle;curved=1;exitX=1.038;exitY=0.345;exitPerimeter=0;entryX=1.027;entryY=0.831;entryDx=0;entryDy=0;entryPerimeter=0;" edge="1" parent="1">
          <mxGeometry x="0.0067" y="20" relative="1" as="geometry">
            <mxPoint x="295" y="740.97" as="sourcePoint" />
            <mxPoint x="295" y="779.97" as="targetPoint" />
            <Array as="points">
              <mxPoint x="350" y="740.97" />
              <mxPoint x="350" y="779.97" />
            </Array>
            <mxPoint as="offset" />
          </mxGeometry>
        </mxCell>
        <mxCell id="blYR4sCcMmHHItJsjOj6-64" value="超时检查" style="html=1;verticalAlign=bottom;endArrow=block;labelBackgroundColor=none;fontFamily=Verdana;fontSize=12;elbow=vertical;edgeStyle=orthogonalEdgeStyle;curved=1;exitX=1.038;exitY=0.345;exitPerimeter=0;entryX=1.027;entryY=0.831;entryDx=0;entryDy=0;entryPerimeter=0;" edge="1" parent="1">
          <mxGeometry x="0.0067" y="20" relative="1" as="geometry">
            <mxPoint x="295" y="820" as="sourcePoint" />
            <mxPoint x="295" y="859" as="targetPoint" />
            <Array as="points">
              <mxPoint x="350" y="820" />
              <mxPoint x="350" y="859" />
            </Array>
            <mxPoint as="offset" />
          </mxGeometry>
        </mxCell>
        <mxCell id="blYR4sCcMmHHItJsjOj6-66" value="" style="html=1;points=[];perimeter=orthogonalPerimeter;rounded=0;shadow=0;comic=0;labelBackgroundColor=none;strokeWidth=1;fontFamily=Verdana;fontSize=12;align=center;" vertex="1" parent="1">
          <mxGeometry x="605" y="660" width="10" height="200" as="geometry" />
        </mxCell>
      </root>
    </mxGraphModel>
  </diagram>
</mxfile>
